<svg width="2449" height="1554" xmlns="http://www.w3.org/2000/svg">
<g fill="none" fill-rule="evenodd">
<path fill="#000000" d="M685.77,616.84l-2.14,10.55L657.17,613.7h0a7.75,7.75,0,0,1,10.36-1.13l3.13,2.28a3.74,3.74,0,0,0,5.44-3h0Z" transform="translate(-208.6 -210.5)"/>
<path fill="#000000" d="M735.4,616.84l2.14,10.55L764,613.7h0a7.75,7.75,0,0,0-10.36-1.13l-3.13,2.28a3.74,3.74,0,0,1-5.44-3h0Z" transform="translate(-208.6 -210.5)"/>
<path fill="#000000" class="cls-9" d="M747.65,515.83l-7.74-70.53-26.86-10.61-2.47.95-2.47-.95-26.86,10.61-7.74,70.53a19,19,0,0,0-.11,2.62l2.68,93.39,9.67,5s6.61-11.9,9.65-40.66a312.88,312.88,0,0,0,.69-54.56l14.47-51.77,14.48,51.77a312.84,312.84,0,0,0,.69,54.56c3,28.76,9.65,40.66,9.65,40.66l9.67-5,2.69-93.39A19.11,19.11,0,0,0,747.65,515.83Z" transform="translate(-208.6 -210.5)"/>
</g>
</svg>
