<svg width="2449" height="1554" xmlns="http://www.w3.org/2000/svg">
<g fill="none" fill-rule="evenodd">

<path  fill="#7DD3FF" d="M183 518h2466V343H183z"/>
<path  fill="#96DCFF" d="M183 347h2466V172H183z"/>
<path fill="#5AC8FF" d="M183 687h2466V512H183z"/>
<path  fill="#B2E0F7" d="M183 175.001h2466v-175H183z"/>
<path  fill="#1D5717" d="M0 1553h2459V930H0z"/>
<path  fill="#ECC194" d="M0 930h2459V776H0z"/>
<circle cx="200" cy="200" r="200" fill="#FCB912" />
<path  fill="#EAF2F9" d="M0 175.332v166.75l392.371-49.042 375.15 30.516 212.048-79.924-221.843-79.924H424.985L212.97 139zM1826.229 288.41l-127.855 19.146L1682 385.1l392.94-27.627 181.655 5.025 106.194-55.254-141.481-60.645-223.218-5.909zM2280.995 415l-172.66 13.629L2015 463.223l67.663 32.5 165.666-5.242 118.993 11.53 65.945-34.593z"/>
<path  fill="#31323D" d="M2354.011 676.426v-8.934h-61.47v23.263H2269.6v-12.23h-61.47v-3.29h-89.758v15.52h-40.769v-22.049h-137.408v10.678h-87.196v-6.533h-87.204v17.904h-106.427v-5.615h-59.22v-12.289h-91.577v-7.286h-188.187v25.19h-22.556v-19.434h-78.451v5.105h-84.737v-8.934h-61.47v23.263h-22.947v-12.23h-61.465v-3.29H899v15.52h-40.774v-22.049H720.821v10.678h-87.2v-6.533h-87.2v17.904H439.994v-5.615h-59.22v-12.289h-91.58v-7.286H101.01v25.19H78.45v-19.434H-.002V799.75h2444V676.426z"/>  
<path  fill="#E7281F" d="M269 772.435h191V609.597H269z"/>

<path fill="#F16908" d="M269 772.435h191V609.597H269z"/>
<path fill="#101847" d="M460 772.435h92V609.597h-92z"/>
<path fill="#FFCD50" d="M552 772.435h148V640.048H552z"/>
<path fill="#101847" d="M700 772.435h76V640.048h-76z"/>
<path fill="#FFCD50" d="M1275 788.01h167V655.623h-167z"/>
<path fill="#101847" d="M1442 788.01h79V655.623h-79z"/>
<path fill="#FFCD50" d="M1909 788.01h91V655.623h-91z"/>
<path fill="#101847" d="M2000 788.01h41V655.623h-41z"/>
<path fill="#FFCD50" d="M1645 797.952h87V665.565h-87z"/>
<path fill="#101847" d="M1732 797.952h44V665.565h-44z"/>

<path  fill="#3B692B" d="M0 838.657v326.05l702.33 37.636 494.175-37.635L1522.44 1266l133.399-63.657L2131 1077.16l-437.312-210.407L981.094 768z"/>

<path  fill="#608230" d="M903.72 1085.76L646 1252.669 831.346 1554 2197 1552.841v-392.337L1676.878 962z"/>
<path  fill="#3B692B" d="M2113.37 1198.374l-325.684-45.944L1631 1264.733l262.099 159.947L2045 1554h414v-421z"/>
<path  fill="#76A031" d="M478.737 1000.758L0 953v600h2309l-871.52-240.22L815.594 953z"/>
<path  fill="#191624" d="M1629.77 1222.97l41.854 23.068 36.163 723.543 173.98-1.311 74.222-709.263 20.929-5.761L1988 1042.758l-25.852-157.138-50.475-79.296-64.013-33.155 17.236-72.09L1826.735 629l-60.321 8.649-28.31 82.175v86.5l-68.941 18.744L1615 1025.46l36.93 57.665z"/>
<path d="M2169 760.51v-65.935s10.85-72.088 129.224-77.364c118.375-5.274 94.878 143.3 94.878 143.3h-224.103z" fill="#FFCD50"/>

<path d="M2194 760.51V710.4s7.057-54.789 84.052-58.798 61.713 108.908 61.713 108.908H2194z" fill="#101847"/>
<path xmlns="http://www.w3.org/2000/svg" fill="#3E3F3E" d="M920.383 1179.298l-242.138-83.813-91.056 99.408 65.101 141.233 248.177-22.063z"/>
<path xmlns="http://www.w3.org/2000/svg" fill="#5D5F5B" d="M591.876 1361.248l143.89-23.11 35.209-123.913-111.404-22.22L570 1265.528z"/>

<path xmlns="http://www.w3.org/2000/svg" fill="#111416" d="M870.948 889.374l-17.45-50.159 4.802-38.385 31.403-22.674h51.907l21.368 20.494v25.728l17.44 20.936-5.666 5.243-4.36 27.476 1.739 13.521-29.224 9.17-18.314 27.035 42.754 73.708 26.16-31.845-14.386-23.116 2.18-23.98 12.207-13.09 26.17 6.108 22.674 20.503-50.15 122.993 35.763 8.72 23.116 27.926 4.801 36.196 2.18 52.78 9.153 53.205 12.224 15.71 31.836 13.08 32.719 8.288 11.774 14.828-6.982 10.91-85.49 14.386 39.25 13.09 49.736 18.314 18.755 21.377-8.729 12.215-30.538 4.793-119.507-6.54-14.395-14.829 10.476-33.15-34.466-91.598-16.575-62.366-87.23 8.287-77.634 4.802-34.025-10.044-20.494-27.043 18.314-81.122 20.936-70.23 47.537-82.427z"/>
</g></svg>
