<svg xmlns="http://www.w3.org/2000/svg" xmlns:xlink="http://www.w3.org/1999/xlink" viewBox="0 0 1518 1012"><defs><style>.cls-1{fill:none;}.cls-2{fill:#1d1d1b;}.cls-3{isolation:isolate;}.cls-4{fill:#a770ff;}.cls-5,.cls-6{mix-blend-mode:soft-light;}.cls-5{fill:url(#_10_ppp_10_);}.cls-6{opacity:0.8;}.cls-7{fill:#00d7ff;}.cls-8{fill:#ff63be;}.cls-14,.cls-9{fill:#fff;}.cls-10{fill:#ffd01f;}.cls-11{fill:#ffb700;}.cls-12{fill:#00aef2;}.cls-13{fill:#ffcc38;}.cls-14{font-size:110px;font-family:Arial-BoldMT, Arial;font-weight:700;}</style><pattern id="_10_ppp_10_" data-name="10 ppp 10%" width="28.8" height="28.8" patternTransform="translate(247.93 24.8)" patternUnits="userSpaceOnUse" viewBox="0 0 28.8 28.8"><rect class="cls-1" width="28.8" height="28.8"/><circle class="cls-2" cx="28.8" cy="28.8" r="0.72"/><circle class="cls-2" cx="14.4" cy="28.8" r="0.72"/><circle class="cls-2" cy="28.8" r="0.72"/><circle class="cls-2" cx="28.8" cy="14.4" r="0.72"/><circle class="cls-2" cx="14.4" cy="14.4" r="0.72"/><circle class="cls-2" cy="14.4" r="0.72"/><circle class="cls-2" cx="28.8" r="0.72"/><circle class="cls-2" cx="14.4" r="0.72"/><circle class="cls-2" r="0.72"/><circle class="cls-2" cx="-14.4" r="0.72"/><path class="cls-2" d="M-14.4,0"/><circle class="cls-2" cx="7.2" cy="21.6" r="0.72"/><circle class="cls-2" cx="21.6" cy="21.6" r="0.72"/><circle class="cls-2" cx="7.2" cy="7.2" r="0.72"/><circle class="cls-2" cx="21.6" cy="7.2" r="0.72"/><circle class="cls-2" cx="-7.2" cy="7.2" r="0.72"/><path class="cls-2" d="M-7.2,7.2"/></pattern></defs><title>quiz1</title><g class="cls-3"><g id="Layer_1" data-name="Layer 1"><rect class="cls-4" width="1518" height="1012"/><rect class="cls-5" width="1518" height="1012"/><g class="cls-6"><path d="M1319.69,690.18H613.3a9.43,9.43,0,0,0-9.48,8.63,9.09,9.09,0,0,0,9,9.59h707.4a9.09,9.09,0,0,0,9-9.59A9.43,9.43,0,0,0,1319.69,690.18Z" transform="translate(0.34)"/><path d="M567.29,707.89h-339a9,9,0,0,1-9-9h0a9,9,0,0,1,9-9h339a9,9,0,0,1,9,9h0A9,9,0,0,1,567.29,707.89Z" transform="translate(0.34)"/></g><path class="cls-7" d="M1269.76,434.12h26.66a0,0,0,0,1,0,0V471a4.4,4.4,0,0,1-4.4,4.4h-17.85a4.4,4.4,0,0,1-4.4-4.4V434.12A0,0,0,0,1,1269.76,434.12Z"/><path class="cls-8" d="M1311.06,425.12c4.15-6.75,2.83-18.33-4.54-25.86a23.05,23.05,0,0,0-27.15-4.32l-1.49.78a23,23,0,0,0-11.72,14.94l-4.31,20.87-9.22,3,2.62,25.86,8.75-7.75,13.9-12,8.79,4.46a11.43,11.43,0,0,0,15.52-4.1l.05-.09,2.66-4.48Z" transform="translate(0.34)"/><path class="cls-7" d="M1314.22,418.24l.94-.14a25.69,25.69,0,0,0-17.65-30.55h0a25.67,25.67,0,0,0-32.66,20.23,110.52,110.52,0,0,0-1.93,18.58l17.31-14.82,1.46.82A50.85,50.85,0,0,0,1314.22,418.24Z" transform="translate(0.34)"/><path class="cls-9" d="M1294.3,435.45a5,5,0,1,1-8.66-5.13" transform="translate(0.34)"/><path d="M1284.93,494.76,1282,463a13.26,13.26,0,0,0-3.39-6.73l-8.41-8.95-6.22,5.35-11.37-18.11-22.17-8.18s-37.05,51.11-41.79,81.25l-1.23,7.8,51.13,9.32,17.65-29.4,9.1-8.09,3.52,22.06a12.53,12.53,0,0,0,12.71,10.55h0a12.53,12.53,0,0,0,10.95-7.09L1314,468.23l-12.19-5.55Z" transform="translate(0.34)"/><path class="cls-10" d="M1169.46,664.93l34-108s30.17-19,34.21-29.84l.89-2.4-51.13-9.32-6.86,12.15a48.39,48.39,0,0,0-8.7,26.14l-1.14,34.68-5.16,13.14c-4.47,11.39-9,34.13-9.67,46.35l-1.1,17.06Z" transform="translate(0.34)"/><path class="cls-11" d="M1228.35,658.77l.75,6.16h16l6.94-63.77a24.35,24.35,0,0,0-1.29-11.84l-12.13-64.59-22.4-4.08L1203.48,557l26.88,41.87S1225.63,637.89,1228.35,658.77Z" transform="translate(0.34)"/><circle class="cls-8" cx="1276.56" cy="415.97" r="5.76" transform="translate(268.46 1302.35) rotate(-59.36)"/><polygon points="1222.19 459.44 1213.62 506.49 1247.86 549.58 1258.58 542.5 1239.61 499.44 1239.33 448.09 1222.19 459.44"/><path class="cls-8" d="M1314,468.23h0a16.29,16.29,0,0,0,6-5.36l2.15-3.19a6,6,0,0,0-1.39-6.85l-5.8-5.33,4.38-8.46a2.3,2.3,0,0,0-1.29-3.23h0a2.3,2.3,0,0,0-2.57.76l-7.28,9.33-.69.75a20.79,20.79,0,0,0-3.4,5h0a20.8,20.8,0,0,0-2,7.28l-.32,3.75Z" transform="translate(0.34)"/><path class="cls-8" d="M1272.17,561.31h0a2.42,2.42,0,0,0,.91-3.3l-5.25-9.23-6-.68,7,12.31A2.42,2.42,0,0,0,1272.17,561.31Z" transform="translate(0.34)"/><path class="cls-8" d="M1268.93,565.73h0a2.42,2.42,0,0,0,.92-3.28l-8-14.35-4.21,2.39,8,14.31A2.42,2.42,0,0,0,1268.93,565.73Z" transform="translate(0.34)"/><path class="cls-8" d="M1263.75,566.1h0a2.42,2.42,0,0,0,.91-3.3l-7-12.31-4.21,2.39,7,12.31A2.42,2.42,0,0,0,1263.75,566.1Z" transform="translate(0.34)"/><path class="cls-8" d="M1256.22,562.66h0a2.42,2.42,0,0,0,.91-3.3l-3.68-6.48-4.21,2.39,3.68,6.48A2.42,2.42,0,0,0,1256.22,562.66Z" transform="translate(0.34)"/><path class="cls-8" d="M1250.64,557.74l-2.37-4.16-.45-4.57,11-6.63.27.06a14.53,14.53,0,0,1,9.29,7.32l.34-.15Z" transform="translate(0.34)"/><path class="cls-9" d="M525.65,539.85a174.45,174.45,0,0,1-10.38,60.75,147.55,147.55,0,0,1-29.6,49.21l62.54,60.49-52.8,42.8-66.9-65.36a174.4,174.4,0,0,1-29.35,7.82,180.64,180.64,0,0,1-31.4,2.69q-71,0-115.08-44.72T208.6,539.85V472.7q0-68.69,44-113.55t114.7-44.85q70.23,0,114.31,44.85T525.65,472.7Zm-86.38-67.67q0-40-18.84-65.62t-53.18-25.63q-35.12,0-53.7,25.5T295,472.19v67.67q0,40.5,18.84,66.13t54,25.63q34.09,0,52.8-25.63t18.71-66.13Z" transform="translate(0.34)"/><path class="cls-9" d="M861.7,319.68V564.2q0,63.82-42.42,98.94T708.18,698.25q-69.46,0-112-35.11T553.62,564.2V319.68h86.89V564.2q0,34.35,17.69,50.88t50,16.53q32,0,49.34-16.4t17.3-51V319.68Z" transform="translate(0.34)"/><path class="cls-9" d="M973.86,692.87H887.48V319.68h86.38Z" transform="translate(0.34)"/><path class="cls-9" d="M1106.8,626.23h169.93v66.64H1000.17v-39L1167,386.32H999.41V319.68h275V357.1Z" transform="translate(0.34)"/><path d="M446.2,702.07l-5.64,11.52h35.51a8.62,8.62,0,0,0-9.66-6.41l-4.26.65a4.16,4.16,0,0,1-3.84-5.76H446.2Z" transform="translate(0.34)"/><path d="M476.19,702.07l-5.64,11.52h35.51a8.62,8.62,0,0,0-9.66-6.41l-4.26.65a4.16,4.16,0,0,1-3.84-5.76H476.19Z" transform="translate(0.34)"/><path class="cls-12" d="M472.44,703.13,441,622.34,405,604.08l-40.9,22.09L352.62,608.6l44.59,5L457.07,600a15,15,0,0,1,9.36,11.47l27,91.66Z" transform="translate(0.34)"/><path class="cls-7" d="M435.14,601.94a15,15,0,0,1,7.93,11.83l20.56,89.37H444l-28.9-76.22s-36.6,8.94-61.67,8.94c-11,0-23.12-10.35-23.12-23.12V608.6Z" transform="translate(0.34)"/><path class="cls-13" d="M415.3,599.25l10.8-16.55-25.26-53.07a22.24,22.24,0,0,0-20.08-12.68h-32.2A27,27,0,0,0,325,530.65l-27.77,41.79a12,12,0,0,0,5,17.57l28,12.73v10.82l61.23-7.29-1.62-57.49Zm-92.4-19.8a4.3,4.3,0,0,1-1.72-6.51l9.14-12.23v22Z" transform="translate(0.34)"/><path class="cls-8" d="M394.47,471.07c.14-8.78-7.64-19.06-18.92-22.08a25.52,25.52,0,0,0-28.3,11.2l-1,1.58a25.53,25.53,0,0,0-2.74,20.85l7.44,22,.05,12.35L362,522.17l10.33-5.23.18-13.36,9.87,0a12.66,12.66,0,0,0,12.47-12.66v-9.43Z" transform="translate(0.34)"/><path class="cls-9" d="M384.1,490A5.57,5.57,0,1,1,373,490" transform="translate(0.34)"/><path class="cls-8" d="M368.53,602.12h0a2.68,2.68,0,0,0-1.14-3.62L357,593.06l-7,3.45,14.93,6.75A2.68,2.68,0,0,0,368.53,602.12Z" transform="translate(0.34)"/><path class="cls-8" d="M368.16,608.18h0a2.68,2.68,0,0,0-1.12-3.61L351,596l-2.48,4.76,16,8.54A2.68,2.68,0,0,0,368.16,608.18Z" transform="translate(0.34)"/><path class="cls-8" d="M363.57,611.64h0a2.68,2.68,0,0,0-1.14-3.62l-13.91-7.26L346,605.52l13.91,7.26A2.68,2.68,0,0,0,363.57,611.64Z" transform="translate(0.34)"/><path class="cls-8" d="M354.49,613h0a2.68,2.68,0,0,0-1.14-3.62L346,605.52l-2.48,4.76,7.32,3.82A2.68,2.68,0,0,0,354.49,613Z" transform="translate(0.34)"/><path class="cls-8" d="M346.33,611.73l-3.42-1.78a6.82,6.82,0,0,1-2.18-1.8l-2.26-2.85,6.28-12.79.29-.1a16.09,16.09,0,0,1,13,1.24Z" transform="translate(0.34)"/><path d="M360.47,441h0c14.24-3.56,29,3.24,34,17.63a19.33,19.33,0,0,1,1.27,5.56l-10.89.71-3.95-7.06-1.72,7.34-19,1.32-12.47,29.61c-3.95-6.66-5.24-11.4-7.29-16.78A28.9,28.9,0,0,1,360.47,441Z" transform="translate(0.34)"/><circle class="cls-8" cx="355.27" cy="481.48" r="5.12"/><circle cx="363.6" cy="440.08" r="10.06"/><path d="M360.27,456.84v34.11a28.32,28.32,0,0,1-4-19.71C358.26,460.18,360.27,456.84,360.27,456.84Z" transform="translate(0.34)"/><path class="cls-9" d="M467.22,607.56H392.79a7.47,7.47,0,0,1,7.47-7.47h67Z" transform="translate(0.34)"/><path d="M482,607.22H416.67a6.11,6.11,0,0,1-6-7.39l9-41.95a6.11,6.11,0,0,1,6-4.83H491a6.11,6.11,0,0,1,6,7.39l-9,41.95A6.11,6.11,0,0,1,482,607.22Z" transform="translate(0.34)"/><circle class="cls-9" cx="454.16" cy="580.13" r="5.64"/><path class="cls-10" d="M656.25,241.1c0-17-14.07-30.61-31.08-30.61H600.48a30.36,30.36,0,1,0,0,60.72h15.63l19.42,7.44V270.1A30.37,30.37,0,0,0,656.25,241.1Z" transform="translate(0.34)"/><path class="cls-7" d="M1073.3,635.48c0,17,13.11,30.42,30.11,30.42h24.69a30.36,30.36,0,1,0,0-60.72h-15.63L1095,598.11v8.56C1082.84,610.76,1073.3,621.9,1073.3,635.48Z" transform="translate(0.34)"/><path class="cls-7" d="M396.86,388.19c0-17,12.68-29.95,29.68-29.95h24.69a30.36,30.36,0,1,1,0,60.72H435.59L419,425.09v-8.56C402.78,412.44,396.86,401.77,396.86,388.19Z" transform="translate(0.34)"/><path class="cls-7" d="M941.95,365.83q0,6.49-2.33,9.76t-8.36,7.52a15.18,15.18,0,0,0-4.93,4.86,12.42,12.42,0,0,0-1.8,6.68,9,9,0,0,0,2.1,6.26,7.63,7.63,0,0,0,6,2.34,7.48,7.48,0,0,0,5.23-1.92,7.6,7.6,0,0,0,2.19-5.7H955.4l.09.28q.14,9.72-6.19,14.6t-16.7,4.88q-11.12,0-17.5-5.6t-6.37-15.14a18.17,18.17,0,0,1,3.48-10.75,24.72,24.72,0,0,1,8.85-7.71,10.71,10.71,0,0,0,4-4.23,14.82,14.82,0,0,0,1.05-6.14Zm-15.74-19.44h15.7V359h-15.7Z" transform="translate(0.34)"/><path class="cls-8" d="M588.7,556.66q0-6.49,2.34-9.76t8.36-7.52a15.13,15.13,0,0,0,4.93-4.86,12.39,12.39,0,0,0,1.8-6.68,9,9,0,0,0-2.1-6.26,7.64,7.64,0,0,0-6-2.34,7.47,7.47,0,0,0-5.23,1.92,7.59,7.59,0,0,0-2.2,5.7H575.24l-.09-.28q-.14-9.72,6.19-14.6t16.7-4.88q11.12,0,17.5,5.6t6.38,15.14a18.18,18.18,0,0,1-3.48,10.75,24.71,24.71,0,0,1-8.86,7.71,10.72,10.72,0,0,0-4,4.23,14.87,14.87,0,0,0-1,6.14Zm15.75,19.44h-15.7V563.48h15.7Z" transform="translate(0.34)"/><path class="cls-8" d="M588.7,556.66q0-6.49,2.34-9.76t8.36-7.52a15.13,15.13,0,0,0,4.93-4.86,12.39,12.39,0,0,0,1.8-6.68,9,9,0,0,0-2.1-6.26,7.64,7.64,0,0,0-6-2.34,7.47,7.47,0,0,0-5.23,1.92,7.59,7.59,0,0,0-2.2,5.7H575.24l-.09-.28q-.14-9.72,6.19-14.6t16.7-4.88q11.12,0,17.5,5.6t6.38,15.14a18.18,18.18,0,0,1-3.48,10.75,24.71,24.71,0,0,1-8.86,7.71,10.72,10.72,0,0,0-4,4.23,14.87,14.87,0,0,0-1,6.14Zm15.75,19.44h-15.7V563.48h15.7Z" transform="translate(0.34)"/><path d="M319.82,424.81H304V380.89h15.84Zm0,24.11H304V435.69h15.84Z" transform="translate(0.34)"/><path d="M1211.4,326.49h-15.84V282.58h15.84Zm0,24.11h-15.84V337.38h15.84Z" transform="translate(0.34)"/><path d="M685.77,616.84l-2.14,10.55L657.17,613.7h0a7.75,7.75,0,0,1,10.36-1.13l3.13,2.28a3.74,3.74,0,0,0,5.44-3h0Z" transform="translate(0.34)"/><path d="M735.4,616.84l2.14,10.55L764,613.7h0a7.75,7.75,0,0,0-10.36-1.13l-3.13,2.28a3.74,3.74,0,0,1-5.44-3h0Z" transform="translate(0.34)"/><path class="cls-13" d="M747.65,515.83l-7.74-70.53-26.86-10.61-2.47.95-2.47-.95-26.86,10.61-7.74,70.53a19,19,0,0,0-.11,2.62l2.68,93.39,9.67,5s6.61-11.9,9.65-40.66a312.88,312.88,0,0,0,.69-54.56l14.47-51.77,14.48,51.77a312.84,312.84,0,0,0,.69,54.56c3,28.76,9.65,40.66,9.65,40.66l9.67-5,2.69-93.39A19.11,19.11,0,0,0,747.65,515.83Z" transform="translate(0.34)"/><path class="cls-8" d="M837.48,316.7,817,323.21l1.44,4.52,20.44-6.51a2.37,2.37,0,0,0-1.44-4.52Z" transform="translate(0.34)"/><path class="cls-8" d="M813.62,319l1.61-1.33a41.06,41.06,0,0,0,22-16.78l.39-.6a3.81,3.81,0,0,1,5.8-.72h0a3.81,3.81,0,0,1,.89,4.33h0a41.06,41.06,0,0,1-20.78,20.87l-10.3,4.61Z" transform="translate(0.34)"/><path class="cls-8" d="M584.22,316.7l20.44,6.51-1.44,4.52-20.44-6.51a2.37,2.37,0,0,1,1.44-4.52Z" transform="translate(0.34)"/><path class="cls-8" d="M608.08,319l-1.61-1.33a41.05,41.05,0,0,1-22-16.78l-.39-.6a3.81,3.81,0,0,0-5.8-.72h0a3.81,3.81,0,0,0-.89,4.33h0a41.06,41.06,0,0,0,20.78,20.87l10.3,4.61Z" transform="translate(0.34)"/><path class="cls-7" d="M814.85,317.62l-94,30.63H700.8l-94-30.63L604,327.86l73.6,35.24,2.2,82.18h62.18l2.2-82.18,73.6-35.53Z" transform="translate(0.34)"/><path class="cls-8" d="M743,302.77c.15-8.89-7.74-19.3-19.15-22.35a25.85,25.85,0,0,0-28.65,11.34l-1,1.6a25.84,25.84,0,0,0-2.77,21.11l7.54,22.25-.4,10.8,11.82,10.61,10.55-9.87V335.37l9.78.29a12.82,12.82,0,0,0,12.63-12.82V313.3Z" transform="translate(0.34)"/><path d="M695.94,405.58h0a8.42,8.42,0,0,0,8.42-8.46l-.44-89.63L743.31,297a18.86,18.86,0,0,0-1.24-5.43c-4.84-14-19.26-20.67-33.15-17.2h0A28.32,28.32,0,0,0,687.51,302c0,1.07,0,67.31,0,95.18A8.41,8.41,0,0,0,695.94,405.58Z" transform="translate(0.34)"/><path class="cls-9" d="M732.47,322a5.64,5.64,0,0,1-11.29,0" transform="translate(0.34)"/><circle class="cls-8" cx="705.27" cy="313.01" r="6.67"/><path d="M1032.62,489.91v47.87a5.73,5.73,0,0,0,4.6,5.75,5.53,5.53,0,0,0,6.45-5.45V524.26a5.6,5.6,0,0,1,5.61-5.53c2.6,0,5.44,1.8,5.44,4.22v46.6a5.73,5.73,0,0,0,4.6,5.75,5.53,5.53,0,0,0,6.45-5.45l-.1-36a5.58,5.58,0,0,1,5.83-5.64h0a5.58,5.58,0,0,1,5.32,5.57v11a5.73,5.73,0,0,0,4.6,5.75,5.53,5.53,0,0,0,6.45-5.45V480.4Z" transform="translate(0.34)"/><path class="cls-8" d="M1034.06,351.61h55.79l15.07-32.06a10.69,10.69,0,0,0-10.76-15.18h0a10.69,10.69,0,0,0-4.93,1.8L1062,324.75l-27.27-18.58a10.69,10.69,0,0,0-4.93-1.8h0A10.69,10.69,0,0,0,1019,319.55Z" transform="translate(0.34)"/><path class="cls-8" d="M971.48,501.9l14.35-15.72L982.35,483,968,498.72a2.35,2.35,0,0,0,3.48,3.17Z" transform="translate(0.34)"/><path class="cls-8" d="M990.84,488.08l-.72,1.94a40.74,40.74,0,0,0-10.6,25.31l0,.71a3.78,3.78,0,0,1-4.63,3.49h0a3.78,3.78,0,0,1-2.91-3.29h0A40.73,40.73,0,0,1,979.48,488l6.58-9.06Z" transform="translate(0.34)"/><path class="cls-8" d="M1155.18,501.9l-14.35-15.72,3.48-3.17,14.35,15.72a2.35,2.35,0,0,1-3.48,3.17Z" transform="translate(0.34)"/><path class="cls-8" d="M1135.82,488.08l.72,1.94a40.74,40.74,0,0,1,10.6,25.31l0,.71a3.78,3.78,0,0,0,4.63,3.49h0a3.78,3.78,0,0,0,2.91-3.29h0a40.74,40.74,0,0,0-7.54-28.23l-6.58-9.06Z" transform="translate(0.34)"/><path class="cls-10" d="M1143.6,482.78l-47.86-64.49-5.89-66.68-3.83-1.13a85.1,85.1,0,0,0-47.38-.18l-4.57,1.31-3.59,67.28-47.42,63.89,7.42,7.13,36.18-38a50.72,50.72,0,0,1,36.59-15.73h0A50.72,50.72,0,0,1,1100,451.83l36.2,37.74Z" transform="translate(0.34)"/><path class="cls-8" d="M1031,480.81c-.14,8.6,7.49,18.68,18.54,21.64a25,25,0,0,0,27.73-11l1-1.55a25,25,0,0,0,2.68-20.43l-7.29-18.06-.07-12.85-10.26-7.79-10.49,7.79-.24,13.83-9.68,0a12.41,12.41,0,0,0-12.22,12.41v5.76Z" transform="translate(0.34)"/><path class="cls-9" d="M1041.19,465.71a5.46,5.46,0,0,1,10.93,0" transform="translate(0.34)"/><path d="M1066.73,478.42,1030,486.26a19.34,19.34,0,0,0,1.27,5.59c5,14.47,19.84,21.3,34.16,17.72,13.21-3.3,22.43-15.47,22.43-27.79s-11.28-23.09-11.28-23.09Z" transform="translate(0.34)"/><circle class="cls-8" cx="1068.87" cy="474.09" r="6.25"/><path d="M908.16,594.53C904,580.8,897.89,575,886.61,574.27c-5-.31-46.75-.31-51.74,0C823.6,575,818.39,582,814.14,596l-9.52,38.49a14.7,14.7,0,0,0,3.6,12l12.85,14.33,6-50.68,11,60.43h49.53l8.2-60.43,8.11,50.31,12.53-14.2a14.7,14.7,0,0,0,3.5-12Z" transform="translate(0.34)"/><path class="cls-8" d="M827.66,530.79c-.14-8.81,7.68-19.14,19-22.17a25.63,25.63,0,0,1,28.42,11.25l1,1.58a25.63,25.63,0,0,1,2.75,20.93l-7.47,18.5-.07,13.17-10.51,8L850,574l-.24-14.17-9.91,0a12.71,12.71,0,0,1-12.52-12.71v-5.9Z" transform="translate(0.34)"/><path class="cls-9" d="M838.07,546.26a5.6,5.6,0,0,0,11.19,0" transform="translate(0.34)"/><path class="cls-7" d="M872.49,558l7.8-13.44a29.61,29.61,0,0,0,2.45-5.42l0-.14c5.08-15.1-2.54-32.06-17.66-37.06q-1.09-.36-2.22-.64c-14.67-3.66-29.88,3.34-35,18.16a19.81,19.81,0,0,0-1.3,5.73L845,538.61A10,10,0,0,0,858.55,537l3.76-4.46Z" transform="translate(0.34)"/><circle class="cls-8" cx="866.42" cy="537.68" r="6.41"/><path class="cls-8" d="M938.38,670.39c-3.4-5.47-9.92-7.42-16.18-5.9L894.25,672H830.07l-27.95-7.48a14.71,14.71,0,0,0-16.18,6.26,15.29,15.29,0,0,0,6.83,22l49.88,15.69h52.83l36.07-15.87C940,688.95,943.21,678.16,938.38,670.39Z" transform="translate(0.34)"/><path d="M878.54,703.55l3.72,4.15,35.76.47h0a8.83,8.83,0,0,0-9.68-6.87l-4.38.53c-8,0-13.22-6.41-13.22-6.41Z" transform="translate(0.34)"/><path d="M823.56,701.46a14.87,14.87,0,0,1-3.21.37L816,701.3a8.83,8.83,0,0,0-9.68,6.87l36.36-.41Z" transform="translate(0.34)"/><path class="cls-9" d="M896,688.28H828.19a6.58,6.58,0,0,1-6.55-5.9l-4.39-42.31a6.58,6.58,0,0,1,6.55-7.26h76.73a6.58,6.58,0,0,1,6.55,7.28l-4.49,42.31A6.58,6.58,0,0,1,896,688.28Z" transform="translate(0.34)"/><circle class="cls-10" cx="862.49" cy="660.54" r="5.77"/><path d="M825.34,527.11c.13-1.58.36-6.14.48-8.65,1.1-13.34,15.53-24.07,30.53-23.75,12.68.27,24,8.83,28.2,20.79a28.39,28.39,0,0,1,1.64,8.14l-.14,3.16-77.12,4.4-.18-3.14Z" transform="translate(0.34)"/><text class="cls-14" transform="translate(743.26 857.19)">OLYMPIAD</text></g></g></svg>