<?xml version="1.0" encoding="utf-8"?>
<!-- Generator: Adobe Illustrator 21.0.0, SVG Export Plug-In . SVG Version: 6.00 Build 0)  -->
<svg version="1.1" id="Layer_1" xmlns="http://www.w3.org/2000/svg" xmlns:xlink="http://www.w3.org/1999/xlink" x="0px" y="0px"
	 viewBox="0 0 1518 1012" style="enable-background:new 0 0 2449 1554;" xml:space="preserve">
<style type="text/css">
	.st0{opacity:0.8;}
	.st1{fill:#00D7FF;}
	.st2{fill:#FF63BE;}
	.st3{fill:#FFFFFF;}
	.st4{fill:#FFD01F;}
	.st5{fill:#FFB700;}
	.st6{fill:#00AEF2;}
	.st7{fill:#FFCC38;}
	.st8{font-family:'Arial-BoldMT';}
	.st9{font-size:110px;}
</style>
<g>
	<g class="st0">
		<path d="M1319.7,690.2H613.3c-4.9,0-9.2,3.8-9.5,8.6c-0.3,5.2,3.8,9.6,9,9.6h707.4c5.1,0,9.2-4.4,9-9.6
			C1328.9,694,1324.6,690.2,1319.7,690.2z"/>
		<path d="M567.3,707.9h-339c-5,0-9-4-9-9l0,0c0-5,4-9,9-9h339c5,0,9,4,9,9l0,0C576.3,703.9,572.2,707.9,567.3,707.9z"/>
	</g>
	<g>
		<g>
			<g>
				<path class="st1" d="M1291.7,475.4h-17.8c-2.4,0-4.4-2-4.4-4.4v-36.9h26.7V471C1296.1,473.4,1294.1,475.4,1291.7,475.4z"/>
				<path class="st2" d="M1311.1,425.1c4.2-6.8,2.8-18.3-4.5-25.9c-7.1-7.3-18.1-9-27.1-4.3l-1.5,0.8c-5.9,3.1-10.1,8.5-11.7,14.9
					l-4.3,20.9l-9.2,3l2.6,25.9l8.7-7.7l13.9-12l8.8,4.5c5.4,3.1,12.3,1.3,15.5-4.1l0.1-0.1l2.7-4.5L1311.1,425.1z"/>
				<path class="st1" d="M1314.2,418.2l0.9-0.1c3.1-13.2-4.6-26.7-17.6-30.5l0,0c-14.8-4.4-30.1,5.1-32.7,20.2
					c-0.9,5-1.9,11.7-1.9,18.6l17.3-14.8l1.5,0.8C1291.6,417.9,1303,420,1314.2,418.2z"/>
				<path class="st3" d="M1294.3,435.4c-1.4,2.4-4.5,3.2-6.9,1.8c-2.4-1.4-3.2-4.5-1.8-6.9"/>
				<path d="M1284.9,494.8L1282,463c-0.5-2.5-1.6-4.9-3.4-6.7l-8.4-8.9l-6.2,5.4l-11.4-18.1l-22.2-8.2c0,0-37.1,51.1-41.8,81.2
					l-1.2,7.8l51.1,9.3l17.7-29.4l9.1-8.1l3.5,22.1c1,6.2,6.4,10.7,12.7,10.5h0c4.7-0.1,8.9-2.9,10.9-7.1l21.4-44.5l-12.2-5.6
					L1284.9,494.8z"/>
				<path class="st4" d="M1169.5,664.9l34-108c0,0,30.2-19,34.2-29.8l0.9-2.4l-51.1-9.3l-6.9,12.2c-5.4,7.7-8.4,16.8-8.7,26.1
					l-1.1,34.7l-5.2,13.1c-4.5,11.4-9,34.1-9.7,46.3l-1.1,17.1H1169.5z"/>
				<path class="st5" d="M1228.3,658.8l0.7,6.2h16l6.9-63.8c0.6-4,0.1-8.1-1.3-11.8l-12.1-64.6l-22.4-4.1l-12.7,36.3l26.9,41.9
					C1230.4,598.8,1225.6,637.9,1228.3,658.8z"/>
				
					<ellipse transform="matrix(0.5096 -0.8604 0.8604 0.5096 268.1209 1302.3516)" class="st2" cx="1276.6" cy="416" rx="5.8" ry="5.8"/>
			</g>
			<polygon points="1221.9,459.4 1213.3,506.5 1247.5,549.6 1258.2,542.5 1239.3,499.4 1239,448.1 			"/>
			<path class="st2" d="M1314,468.2L1314,468.2c2.4-1.3,4.5-3.1,6-5.4l2.1-3.2c1.1-2.3,0.5-5.1-1.4-6.8l-5.8-5.3l4.4-8.5
				c0.6-1.2,0-2.8-1.3-3.2l0,0c-0.9-0.3-2,0-2.6,0.8l-7.3,9.3l-0.7,0.7c-1.4,1.5-2.5,3.2-3.4,5l0,0c-1.1,2.3-1.8,4.8-2,7.3l-0.3,3.8
				L1314,468.2z"/>
		</g>
		<g>
			<g>
				<path class="st2" d="M1272.2,561.3L1272.2,561.3c1.2-0.7,1.6-2.1,0.9-3.3l-5.3-9.2l-6-0.7l7,12.3
					C1269.5,561.6,1271,562,1272.2,561.3z"/>
				<path class="st2" d="M1268.9,565.7L1268.9,565.7c1.2-0.7,1.6-2.1,0.9-3.3l-8-14.4l-4.2,2.4l8,14.3
					C1266.3,566,1267.8,566.4,1268.9,565.7z"/>
				<path class="st2" d="M1263.8,566.1L1263.8,566.1c1.2-0.7,1.6-2.1,0.9-3.3l-7-12.3l-4.2,2.4l7,12.3
					C1261.1,566.4,1262.6,566.8,1263.8,566.1z"/>
				<path class="st2" d="M1256.2,562.7L1256.2,562.7c1.2-0.7,1.6-2.1,0.9-3.3l-3.7-6.5l-4.2,2.4l3.7,6.5
					C1253.6,562.9,1255.1,563.3,1256.2,562.7z"/>
			</g>
			<path class="st2" d="M1250.6,557.7l-2.4-4.2l-0.5-4.6l11-6.6l0.3,0.1c4.1,0.9,7.2,3.7,9.3,7.3l0.3-0.2L1250.6,557.7z"/>
		</g>
	</g>
	<g>
		<path class="st3" d="M525.7,539.9c0,21.7-3.5,42-10.4,60.7c-6.9,18.8-16.8,35.2-29.6,49.2l62.5,60.5l-52.8,42.8l-66.9-65.4
			c-9.4,3.4-19.2,6-29.3,7.8c-10.2,1.8-20.6,2.7-31.4,2.7c-47.3,0-85.7-14.9-115.1-44.7c-29.4-29.8-44.1-67.7-44.1-113.7v-67.2
			c0-45.8,14.6-83.6,44-113.5c29.3-29.9,67.5-44.9,114.7-44.9c46.8,0,84.9,15,114.3,44.9c29.4,29.9,44.1,67.8,44.1,113.5V539.9z
			 M439.3,472.2c0-26.7-6.3-48.5-18.8-65.6c-12.6-17.1-30.3-25.6-53.2-25.6c-23.4,0-41.3,8.5-53.7,25.5
			c-12.4,17-18.6,38.9-18.6,65.7v67.7c0,27,6.3,49,18.8,66.1c12.6,17.1,30.5,25.6,54,25.6c22.7,0,40.3-8.5,52.8-25.6
			c12.5-17.1,18.7-39.1,18.7-66.1V472.2z"/>
		<path class="st3" d="M861.7,319.7v244.5c0,42.5-14.1,75.5-42.4,98.9c-28.3,23.4-65.3,35.1-111.1,35.1c-46.3,0-83.6-11.7-112-35.1
			c-28.4-23.4-42.5-56.4-42.5-98.9V319.7h86.9v244.5c0,22.9,5.9,39.9,17.7,50.9c11.8,11,28.5,16.5,50,16.5
			c21.4,0,37.8-5.5,49.3-16.4c11.5-10.9,17.3-27.9,17.3-51V319.7H861.7z"/>
		<path class="st3" d="M973.9,692.9h-86.4V319.7h86.4V692.9z"/>
		<path class="st3" d="M1106.8,626.2h169.9v66.6h-276.6v-39L1167,386.3H999.4v-66.6h275v37.4L1106.8,626.2z"/>
	</g>
	<g>
		<path d="M446.2,702.1l-5.6,11.5h35.5l0,0c-1.1-4.3-5.3-7.1-9.7-6.4l-4.3,0.7c-3,0-5-3-3.8-5.8l0,0H446.2z"/>
		<path d="M476.2,702.1l-5.6,11.5h35.5l0,0c-1.1-4.3-5.3-7.1-9.7-6.4l-4.3,0.7c-3,0-5-3-3.8-5.8l0,0H476.2z"/>
		<g>
			<g>
				<path class="st6" d="M472.4,703.1L441,622.3L405,604.1l-40.9,22.1l-11.4-17.6l44.6,5l59.9-13.6c4.9,1.9,8.5,6.3,9.4,11.5
					l27,91.7H472.4z"/>
				<path class="st1" d="M435.1,601.9c4.5,2.4,7.5,6.8,7.9,11.8l20.6,89.4H444l-28.9-76.2c0,0-36.6,8.9-61.7,8.9
					c-11,0-23.1-10.4-23.1-23.1v-4.1L435.1,601.9z"/>
				<path class="st7" d="M415.3,599.2l10.8-16.5l-25.3-53.1c-3.7-7.7-11.5-12.7-20.1-12.7h-32.2c-9.7,0-18.7,5.2-23.5,13.7
					l-27.8,41.8c-4.1,6.2-1.7,14.5,5,17.6l28,12.7v10.8l61.2-7.3l-1.6-57.5L415.3,599.2z M322.9,579.5c-2.5-1.1-3.4-4.3-1.7-6.5
					l9.1-12.2v22L322.9,579.5z"/>
				<path class="st2" d="M394.5,471.1c0.1-8.8-7.6-19.1-18.9-22.1c-10.9-2.9-22.4,1.6-28.3,11.2l-1,1.6c-3.9,6.2-4.9,13.8-2.7,20.8
					l7.4,22l0.1,12.3l10.9,5.2l10.3-5.2l0.2-13.4l9.9,0c6.9-0.1,12.5-5.7,12.5-12.7v-0.1l0-9.3L394.5,471.1z"/>
				<path class="st3" d="M384.1,490c0,3.1-2.5,5.6-5.6,5.6c-3.1,0-5.6-2.5-5.6-5.6"/>
				<g>
					<g>
						<path class="st2" d="M368.5,602.1L368.5,602.1c0.7-1.3,0.2-2.9-1.1-3.6l-10.4-5.4l-7,3.4l14.9,6.8
							C366.2,603.9,367.8,603.4,368.5,602.1z"/>
						<path class="st2" d="M368.2,608.2L368.2,608.2c0.7-1.3,0.2-2.9-1.1-3.6l-16-8.6l-2.5,4.8l16,8.5
							C365.8,610,367.5,609.5,368.2,608.2z"/>
						<path class="st2" d="M363.6,611.6L363.6,611.6c0.7-1.3,0.2-2.9-1.1-3.6l-13.9-7.3l-2.5,4.8l13.9,7.3
							C361.3,613.5,362.9,613,363.6,611.6z"/>
						<path class="st2" d="M354.5,613L354.5,613c0.7-1.3,0.2-2.9-1.1-3.6l-7.3-3.8l-2.5,4.8l7.3,3.8
							C352.2,614.8,353.8,614.3,354.5,613z"/>
					</g>
					<path class="st2" d="M346.3,611.7l-3.4-1.8c-0.8-0.4-1.6-1.1-2.2-1.8l-2.3-2.8l6.3-12.8l0.3-0.1c4.4-1.6,8.9-0.9,13,1.2
						L346.3,611.7z"/>
				</g>
				<path d="M360.5,441L360.5,441c14.2-3.6,29,3.2,34,17.6c1.3,3.7,1.3,5.6,1.3,5.6l-10.9,0.7l-3.9-7.1l-1.7,7.3l-19,1.3l-12.5,29.6
					c-3.9-6.7-5.2-11.4-7.3-16.8C334.2,463.2,343.6,445.2,360.5,441z"/>
				<circle class="st2" cx="354.9" cy="481.5" r="5.1"/>
				<circle cx="363.3" cy="440.1" r="10.1"/>
				<path d="M360.3,456.8v34.1c0,0-6.1-8.7-4-19.7S360.3,456.8,360.3,456.8z"/>
			</g>
		</g>
		<g>
			<path class="st3" d="M467.2,607.6h-74.4l0,0c0-4.1,3.3-7.5,7.5-7.5h67V607.6z"/>
			<path d="M482,607.2h-65.3c-3.9,0-6.8-3.6-6-7.4l9-41.9c0.6-2.8,3.1-4.8,6-4.8H491c3.9,0,6.8,3.6,6,7.4l-9,41.9
				C487.4,605.2,484.9,607.2,482,607.2z"/>
			<circle class="st3" cx="453.8" cy="580.1" r="5.6"/>
		</g>
	</g>
	<path class="st4" d="M656.3,241.1c0-17-14.1-30.6-31.1-30.6h-24.7c-17,0-30.8,13.4-30.8,30.4c0,17,13.8,30.4,30.8,30.4h15.6
		l19.4,7.4v-8.6C647.7,266,656.3,254.7,656.3,241.1z"/>
	<path class="st1" d="M1073.3,635.5c0,17,13.1,30.4,30.1,30.4h24.7c17,0,30.8-13.4,30.8-30.4s-13.8-30.4-30.8-30.4h-15.6l-17.5-7.1
		v8.6C1082.8,610.8,1073.3,621.9,1073.3,635.5z"/>
	<path class="st1" d="M396.9,388.2c0-17,12.7-29.9,29.7-29.9h24.7c17,0,30.8,13.4,30.8,30.4c0,17-13.8,30.4-30.8,30.4h-15.6
		l-16.6,6.1v-8.6C402.8,412.4,396.9,401.8,396.9,388.2z"/>
	<g>
		<path class="st1" d="M941.9,365.8c0,4.3-0.8,7.6-2.3,9.8c-1.5,2.2-4.3,4.7-8.4,7.5c-2.1,1.3-3.7,2.9-4.9,4.9
			c-1.2,1.9-1.8,4.2-1.8,6.7c0,2.6,0.7,4.7,2.1,6.3c1.4,1.6,3.4,2.3,6,2.3c2.1,0,3.8-0.6,5.2-1.9c1.4-1.3,2.1-3.2,2.2-5.7h15.4
			l0.1,0.3c0.1,6.5-2,11.3-6.2,14.6c-4.2,3.3-9.8,4.9-16.7,4.9c-7.4,0-13.2-1.9-17.5-5.6c-4.2-3.7-6.4-8.8-6.4-15.1
			c0-3.9,1.2-7.5,3.5-10.7c2.3-3.3,5.3-5.8,8.9-7.7c2-1.3,3.3-2.7,4-4.2c0.7-1.5,1.1-3.6,1.1-6.1H941.9z M926.2,346.4h15.7V359
			h-15.7V346.4z"/>
	</g>
	<g>
		<g>
			<path class="st2" d="M588.7,556.7c0-4.3,0.8-7.6,2.3-9.8c1.5-2.2,4.3-4.7,8.4-7.5c2.1-1.3,3.7-2.9,4.9-4.9
				c1.2-1.9,1.8-4.2,1.8-6.7c0-2.6-0.7-4.7-2.1-6.3c-1.4-1.6-3.4-2.3-6-2.3c-2.1,0-3.8,0.6-5.2,1.9c-1.4,1.3-2.1,3.2-2.2,5.7h-15.4
				l-0.1-0.3c-0.1-6.5,2-11.3,6.2-14.6c4.2-3.3,9.8-4.9,16.7-4.9c7.4,0,13.2,1.9,17.5,5.6c4.3,3.7,6.4,8.8,6.4,15.1
				c0,3.9-1.2,7.5-3.5,10.7c-2.3,3.3-5.3,5.8-8.9,7.7c-2,1.3-3.3,2.7-4,4.2c-0.7,1.5-1,3.6-1,6.1H588.7z M604.4,576.1h-15.7v-12.6
				h15.7V576.1z"/>
		</g>
		<g>
			<path class="st2" d="M588.7,556.7c0-4.3,0.8-7.6,2.3-9.8c1.5-2.2,4.3-4.7,8.4-7.5c2.1-1.3,3.7-2.9,4.9-4.9
				c1.2-1.9,1.8-4.2,1.8-6.7c0-2.6-0.7-4.7-2.1-6.3c-1.4-1.6-3.4-2.3-6-2.3c-2.1,0-3.8,0.6-5.2,1.9c-1.4,1.3-2.1,3.2-2.2,5.7h-15.4
				l-0.1-0.3c-0.1-6.5,2-11.3,6.2-14.6c4.2-3.3,9.8-4.9,16.7-4.9c7.4,0,13.2,1.9,17.5,5.6c4.3,3.7,6.4,8.8,6.4,15.1
				c0,3.9-1.2,7.5-3.5,10.7c-2.3,3.3-5.3,5.8-8.9,7.7c-2,1.3-3.3,2.7-4,4.2c-0.7,1.5-1,3.6-1,6.1H588.7z M604.4,576.1h-15.7v-12.6
				h15.7V576.1z"/>
		</g>
	</g>
	<g>
		<path d="M319.8,424.8H304v-43.9h15.8V424.8z M319.8,448.9H304v-13.2h15.8V448.9z"/>
	</g>
	<g>
		<path d="M1211.4,326.5h-15.8v-43.9h15.8V326.5z M1211.4,350.6h-15.8v-13.2h15.8V350.6z"/>
	</g>
	<g>
		<path d="M685.8,616.8l-2.1,10.5l-26.5-13.7l0,0c2.6-3,7.1-3.5,10.4-1.1l3.1,2.3c2.4,1.2,5.2-0.4,5.4-3l0,0L685.8,616.8z"/>
		<path d="M735.4,616.8l2.1,10.5l26.5-13.7l0,0c-2.6-3-7.1-3.5-10.4-1.1l-3.1,2.3c-2.4,1.2-5.2-0.4-5.4-3l0,0L735.4,616.8z"/>
		<path class="st7" d="M747.6,515.8l-7.7-70.5l-26.9-10.6l-2.5,0.9l-2.5-0.9l-26.9,10.6l-7.7,70.5c-0.1,0.9-0.1,1.7-0.1,2.6
			l2.7,93.4l9.7,5c0,0,6.6-11.9,9.7-40.7c3-28.8,0.7-54.6,0.7-54.6l14.5-51.8l14.5,51.8c0,0-2.4,25.8,0.7,54.6
			c3,28.8,9.7,40.7,9.7,40.7l9.7-5l2.7-93.4C747.8,517.6,747.7,516.7,747.6,515.8z"/>
		<g>
			<g>
				<path class="st2" d="M837.5,316.7l-20.4,6.5l1.4,4.5l20.4-6.5c1.2-0.4,1.9-1.7,1.5-3C840.1,317,838.7,316.3,837.5,316.7z"/>
				<path class="st2" d="M813.6,319l1.6-1.3c9-2.9,16.8-8.8,22-16.8l0.4-0.6c1.3-2,4.1-2.3,5.8-0.7l0,0c1.2,1.1,1.5,2.8,0.9,4.3l0,0
					c-4.1,9.3-11.5,16.7-20.8,20.9l-10.3,4.6L813.6,319z"/>
			</g>
			<g>
				<path class="st2" d="M584.2,316.7l20.4,6.5l-1.4,4.5l-20.4-6.5c-1.2-0.4-1.9-1.7-1.5-3C581.6,317,583,316.3,584.2,316.7z"/>
				<path class="st2" d="M608.1,319l-1.6-1.3c-9-2.9-16.8-8.8-22-16.8l-0.4-0.6c-1.3-2-4.1-2.3-5.8-0.7l0,0
					c-1.2,1.1-1.5,2.8-0.9,4.3l0,0c4.1,9.3,11.5,16.7,20.8,20.9l10.3,4.6L608.1,319z"/>
			</g>
			<path class="st1" d="M814.9,317.6l-94,30.6c-0.1,0-20,0-20.1,0l-94-30.6l-2.9,10.2l73.6,35.2l2.2,82.2h62.2l2.2-82.2l73.6-35.5
				L814.9,317.6z"/>
			<path class="st2" d="M743,302.8c0.1-8.9-7.7-19.3-19.2-22.4c-11-2.9-22.6,1.7-28.7,11.3l-1,1.6c-3.9,6.3-4.9,14-2.8,21.1
				l7.5,22.3l-0.4,10.8l11.8,10.6l10.5-9.9l0-12.9l9.8,0.3c7-0.1,12.6-5.8,12.6-12.8v-0.1l0-9.4L743,302.8z"/>
			<path d="M695.9,405.6L695.9,405.6c4.7,0,8.4-3.8,8.4-8.5l-0.4-89.6l39.4-10.5c0,0,0-1.8-1.2-5.4c-4.8-14-19.3-20.7-33.2-17.2h0
				c-13,3.3-21.5,15-21.4,27.6c0,1.1,0,67.3,0,95.2C687.5,401.8,691.3,405.6,695.9,405.6z"/>
			<path class="st3" d="M732.5,322c0,3.1-2.5,5.6-5.6,5.6c-3.1,0-5.6-2.5-5.6-5.6"/>
		</g>
		<circle class="st2" cx="704.9" cy="313" r="6.7"/>
	</g>
	<g>
		<path d="M1032.6,489.9v47.9c0,2.8,1.9,5.3,4.6,5.7c3.5,0.6,6.5-2.1,6.5-5.4v-13.8c0-3.1,2.6-5.5,5.6-5.5c2.6,0,5.4,1.8,5.4,4.2
			v46.6c0,2.8,1.9,5.3,4.6,5.7c3.5,0.6,6.5-2.1,6.5-5.5l-0.1-36c0-3.2,2.6-5.8,5.8-5.6l0,0c3,0.1,5.3,2.6,5.3,5.6v11
			c0,2.8,1.9,5.3,4.6,5.7c3.5,0.6,6.5-2.1,6.5-5.5v-64.6L1032.6,489.9z"/>
		<path class="st2" d="M1034.1,351.6h27.9h27.9l15.1-32.1c3.5-7.5-2.5-16-10.8-15.2l0,0c-1.8,0.2-3.5,0.8-4.9,1.8l-27.3,18.6
			l-27.3-18.6c-1.5-1-3.2-1.6-4.9-1.8l0,0c-8.3-0.8-14.3,7.7-10.8,15.2L1034.1,351.6z"/>
		<g>
			<path class="st2" d="M971.5,501.9l14.4-15.7l-3.5-3.2L968,498.7c-0.9,1-0.8,2.4,0.2,3.3C969.1,502.9,970.6,502.9,971.5,501.9z"/>
			<path class="st2" d="M990.8,488.1l-0.7,1.9c-6.4,7-10.1,15.9-10.6,25.3l0,0.7c-0.1,2.3-2.3,4-4.6,3.5l0,0
				c-1.6-0.4-2.7-1.7-2.9-3.3l0,0c-1.1-10,1.6-20.1,7.5-28.2l6.6-9.1L990.8,488.1z"/>
		</g>
		<g>
			<path class="st2" d="M1155.2,501.9l-14.4-15.7l3.5-3.2l14.4,15.7c0.9,1,0.8,2.4-0.2,3.3C1157.6,502.9,1156.1,502.9,1155.2,501.9z
				"/>
			<path class="st2" d="M1135.8,488.1l0.7,1.9c6.4,7,10.1,15.9,10.6,25.3l0,0.7c0.1,2.3,2.3,4,4.6,3.5l0,0c1.6-0.4,2.7-1.7,2.9-3.3
				l0,0c1.1-10-1.6-20.1-7.5-28.2l-6.6-9.1L1135.8,488.1z"/>
			<path class="st4" d="M1143.6,482.8l-47.9-64.5l-5.9-66.7l-3.8-1.1c-15.5-4.5-31.9-4.6-47.4-0.2l-4.6,1.3l-3.6,67.3l-47.4,63.9
				l7.4,7.1l36.2-38c9.5-10,22.8-15.7,36.6-15.7l0,0c13.9,0,27.1,5.6,36.7,15.6l36.2,37.7L1143.6,482.8z"/>
		</g>
		<path class="st2" d="M1031,480.8c-0.1,8.6,7.5,18.7,18.5,21.6c10.7,2.9,21.9-1.6,27.7-11l1-1.5c3.8-6.1,4.8-13.6,2.7-20.4
			l-7.3-18.1l-0.1-12.9l-10.3-7.8l-10.5,7.8l-0.2,13.8l-9.7,0c-6.8,0.1-12.2,5.6-12.2,12.4v0.1l0,5.7L1031,480.8z"/>
		<path class="st3" d="M1041.2,465.7c0-3,2.4-5.5,5.5-5.5c3,0,5.5,2.4,5.5,5.5"/>
		<path d="M1066.7,478.4l-36.7,7.8c0,0,0,1.9,1.3,5.6c5,14.5,19.8,21.3,34.2,17.7c13.2-3.3,22.4-15.5,22.4-27.8
			c0-12.3-11.3-23.1-11.3-23.1L1066.7,478.4z"/>
		<circle class="st2" cx="1068.5" cy="474.1" r="6.3"/>
	</g>
	<g>
		<path d="M908.2,594.5c-4.2-13.7-10.3-19.6-21.5-20.3c-5-0.3-46.8-0.3-51.7,0c-11.3,0.7-16.5,7.8-20.7,21.7l-9.5,38.5
			c-0.6,4.3,0.7,8.7,3.6,12l12.9,14.3l6-50.7l11,60.4h49.5l8.2-60.4l8.1,50.3l12.5-14.2c2.9-3.3,4.2-7.7,3.5-12L908.2,594.5z"/>
		<path class="st2" d="M827.7,530.8c-0.1-8.8,7.7-19.1,19-22.2c10.9-2.9,22.5,1.6,28.4,11.3l1,1.6c3.9,6.3,4.9,13.9,2.7,20.9
			l-7.5,18.5l-0.1,13.2l-10.5,8l-10.8-8l-0.2-14.2l-9.9,0c-6.9-0.1-12.5-5.8-12.5-12.7V547l0-5.8L827.7,530.8z"/>
		<path class="st3" d="M838.1,546.3c0,3.1,2.5,5.6,5.6,5.6c3.1,0,5.6-2.5,5.6-5.6"/>
		<path class="st1" d="M872.5,558l7.8-13.4c1-1.7,1.8-3.5,2.5-5.4l0-0.1c5.1-15.1-2.5-32.1-17.7-37.1c-0.7-0.2-1.5-0.5-2.2-0.6
			c-14.7-3.7-29.9,3.3-35,18.2c-1.3,3.8-1.3,5.7-1.3,5.7l18.4,13.4c4.2,3.1,10.1,2.4,13.5-1.6l3.8-4.5L872.5,558z"/>
		<circle class="st2" cx="866.1" cy="537.7" r="6.4"/>
		<path class="st2" d="M938.4,670.4c-3.4-5.5-9.9-7.4-16.2-5.9l-27.9,7.5h-64.2l-27.9-7.5c-6.3-1.5-12.8,0.8-16.2,6.3
			c-4.8,7.8-1.6,18.4,6.8,22l49.9,15.7h52.8l36.1-15.9C940,688.9,943.2,678.2,938.4,670.4z"/>
		<path d="M878.5,703.6l3.7,4.1l35.8,0.5l0,0c-1-4.4-5.2-7.4-9.7-6.9l-4.4,0.5c-8,0-13.2-6.4-13.2-6.4L878.5,703.6z"/>
		<path d="M823.6,701.5c-1,0.2-2.1,0.4-3.2,0.4l-4.4-0.5c-4.5-0.5-8.7,2.4-9.7,6.9l36.4-0.4L823.6,701.5z"/>
		<g>
			<path class="st3" d="M896,688.3h-67.8c-3.4,0-6.2-2.5-6.5-5.9l-4.4-42.3c-0.4-3.9,2.6-7.3,6.5-7.3h76.7c3.9,0,7,3.4,6.5,7.3
				l-4.5,42.3C902.2,685.7,899.4,688.3,896,688.3z"/>
			<circle class="st4" cx="862.2" cy="660.5" r="5.8"/>
		</g>
		<path d="M825.3,527.1c0.1-1.6,0.4-6.1,0.5-8.6c1.1-13.3,15.5-24.1,30.5-23.7c12.7,0.3,24,8.8,28.2,20.8c0.9,2.7,1.4,5,1.6,8.1
			l-0.1,3.2l-77.1,4.4l-0.2-3.1L825.3,527.1z"/>
	</g>
</g>
<text transform="matrix(1 0 0 1 742.9202 857.1904)" class="st3 st8 st9">OLYMPIAD</text>
</svg>
